<svg width="24" height="24" viewBox="0 0 24 24" fill="none" xmlns="http://www.w3.org/2000/svg">
<path d="M12 0C5.38321 0 0 5.38321 0 12C0 18.6168 5.38321 24 12 24C18.6168 24 24 18.6168 24 12C24 5.38321 18.6168 0 12 0Z" fill="white"/>
<path d="M18.059 3.3916C17.1423 5.74181 15.0562 6.22845 12.0383 6.22845C11.7139 6.22845 11.3932 6.22467 11.0839 6.2209C10.7859 6.21713 10.4992 6.21336 10.2238 6.21336C9.97856 6.21336 9.72958 6.21713 9.48438 6.22845C9.90688 5.19104 10.5821 4.4856 11.5441 4.05554C12.8833 3.45951 14.6262 3.45196 16.1653 3.44819C16.8292 3.44442 17.4705 3.44064 18.059 3.3916Z" fill="#048C45"/>
<path d="M18.9957 4.14573C17.6414 7.09575 14.6197 7.39377 12.0319 7.39377C11.4622 7.39377 10.919 7.37868 10.4173 7.37868L9.76466 9.92882C13.1032 7.20892 17.5169 9.90619 17.0454 14.0143C16.7285 16.7795 14.7555 18.5903 12.6694 19.1108C10.3984 19.6767 7.87846 18.8279 6.75051 16.5117C6.62979 16.2665 6.42231 15.776 6.34309 15.5157L8.73856 14.9008C8.78006 15.0404 8.85174 15.1725 8.92718 15.2932C10.5305 17.881 13.7823 16.5871 14.152 13.9012C14.5254 11.1699 10.6927 9.71379 8.94604 12.9052L6.82219 11.9999L6.78446 11.9848L7.81055 7.86909C7.87468 7.57862 8.08594 6.76001 8.12366 6.6242C9.28179 2.36516 13.0316 2.29726 16.0382 2.28594C14.7933 1.76912 13.4314 1.48242 12.0017 1.48242C6.19219 1.48242 1.48047 6.19415 1.48047 12.0036C1.48047 17.8131 6.19219 22.5249 12.0017 22.5249C17.8112 22.5249 22.5229 17.8169 22.5229 12.0036C22.5191 8.87632 21.1573 6.07343 18.9957 4.14573Z" fill="#E52825"/>
</svg>
